<mxfile host="app.diagrams.net" agent="Mozilla/5.0 (Windows NT 10.0; Win64; x64) AppleWebKit/537.36 (KHTML, like Gecko) Chrome/131.0.0.0 Safari/537.36" version="26.0.3">
  <diagram name="Page-1" id="rBVKPzI2gPfYDGx2nCSt">
    <mxGraphModel dx="2745" dy="1488" grid="1" gridSize="10" guides="1" tooltips="1" connect="1" arrows="1" fold="1" page="1" pageScale="1" pageWidth="850" pageHeight="1100" math="0" shadow="0">
      <root>
        <mxCell id="0" />
        <mxCell id="1" parent="0" />
        <mxCell id="j98MJw622RbExOt3HMlC-7" style="edgeStyle=orthogonalEdgeStyle;rounded=0;orthogonalLoop=1;jettySize=auto;html=1;exitX=0.5;exitY=1;exitDx=0;exitDy=0;entryX=0.5;entryY=0;entryDx=0;entryDy=0;" edge="1" parent="1" source="j98MJw622RbExOt3HMlC-1" target="j98MJw622RbExOt3HMlC-2">
          <mxGeometry relative="1" as="geometry" />
        </mxCell>
        <mxCell id="j98MJw622RbExOt3HMlC-8" style="edgeStyle=orthogonalEdgeStyle;rounded=0;orthogonalLoop=1;jettySize=auto;html=1;exitX=0.5;exitY=1;exitDx=0;exitDy=0;entryX=0.5;entryY=0;entryDx=0;entryDy=0;" edge="1" parent="1" source="j98MJw622RbExOt3HMlC-1" target="j98MJw622RbExOt3HMlC-3">
          <mxGeometry relative="1" as="geometry" />
        </mxCell>
        <mxCell id="j98MJw622RbExOt3HMlC-9" style="edgeStyle=orthogonalEdgeStyle;rounded=0;orthogonalLoop=1;jettySize=auto;html=1;exitX=0.5;exitY=1;exitDx=0;exitDy=0;entryX=0.5;entryY=0;entryDx=0;entryDy=0;" edge="1" parent="1" source="j98MJw622RbExOt3HMlC-1" target="j98MJw622RbExOt3HMlC-4">
          <mxGeometry relative="1" as="geometry" />
        </mxCell>
        <mxCell id="j98MJw622RbExOt3HMlC-11" style="edgeStyle=orthogonalEdgeStyle;rounded=0;orthogonalLoop=1;jettySize=auto;html=1;exitX=0.5;exitY=1;exitDx=0;exitDy=0;entryX=0.5;entryY=0;entryDx=0;entryDy=0;" edge="1" parent="1" source="j98MJw622RbExOt3HMlC-1" target="j98MJw622RbExOt3HMlC-5">
          <mxGeometry relative="1" as="geometry" />
        </mxCell>
        <mxCell id="j98MJw622RbExOt3HMlC-12" style="edgeStyle=orthogonalEdgeStyle;rounded=0;orthogonalLoop=1;jettySize=auto;html=1;exitX=0.5;exitY=1;exitDx=0;exitDy=0;entryX=0.5;entryY=0;entryDx=0;entryDy=0;" edge="1" parent="1" source="j98MJw622RbExOt3HMlC-1" target="j98MJw622RbExOt3HMlC-6">
          <mxGeometry relative="1" as="geometry" />
        </mxCell>
        <mxCell id="j98MJw622RbExOt3HMlC-1" value="&lt;font style=&quot;font-size: 30px;&quot;&gt;Front End Solution&lt;/font&gt;" style="rounded=1;whiteSpace=wrap;html=1;fillColor=#dae8fc;strokeColor=#6c8ebf;" vertex="1" parent="1">
          <mxGeometry x="278" y="70" width="295" height="80" as="geometry" />
        </mxCell>
        <mxCell id="j98MJw622RbExOt3HMlC-14" style="edgeStyle=orthogonalEdgeStyle;rounded=0;orthogonalLoop=1;jettySize=auto;html=1;exitX=0.5;exitY=1;exitDx=0;exitDy=0;entryX=0.5;entryY=0;entryDx=0;entryDy=0;" edge="1" parent="1" source="j98MJw622RbExOt3HMlC-2" target="j98MJw622RbExOt3HMlC-13">
          <mxGeometry relative="1" as="geometry" />
        </mxCell>
        <mxCell id="j98MJw622RbExOt3HMlC-2" value="1. Planning" style="rounded=1;whiteSpace=wrap;html=1;fillColor=#e1d5e7;strokeColor=#9673a6;" vertex="1" parent="1">
          <mxGeometry y="260" width="120" height="60" as="geometry" />
        </mxCell>
        <mxCell id="j98MJw622RbExOt3HMlC-22" style="edgeStyle=orthogonalEdgeStyle;rounded=0;orthogonalLoop=1;jettySize=auto;html=1;exitX=0.5;exitY=1;exitDx=0;exitDy=0;entryX=0.5;entryY=0;entryDx=0;entryDy=0;" edge="1" parent="1" source="j98MJw622RbExOt3HMlC-3" target="j98MJw622RbExOt3HMlC-21">
          <mxGeometry relative="1" as="geometry" />
        </mxCell>
        <mxCell id="j98MJw622RbExOt3HMlC-3" value="2. Design" style="rounded=1;whiteSpace=wrap;html=1;fillColor=#e1d5e7;strokeColor=#9673a6;" vertex="1" parent="1">
          <mxGeometry x="190" y="260" width="120" height="60" as="geometry" />
        </mxCell>
        <mxCell id="j98MJw622RbExOt3HMlC-33" style="edgeStyle=orthogonalEdgeStyle;rounded=0;orthogonalLoop=1;jettySize=auto;html=1;exitX=0.5;exitY=1;exitDx=0;exitDy=0;entryX=0.5;entryY=0;entryDx=0;entryDy=0;" edge="1" parent="1" source="j98MJw622RbExOt3HMlC-4" target="j98MJw622RbExOt3HMlC-31">
          <mxGeometry relative="1" as="geometry" />
        </mxCell>
        <mxCell id="j98MJw622RbExOt3HMlC-4" value="3. Prototyping" style="rounded=1;whiteSpace=wrap;html=1;fillColor=#e1d5e7;strokeColor=#9673a6;" vertex="1" parent="1">
          <mxGeometry x="365" y="260" width="120" height="60" as="geometry" />
        </mxCell>
        <mxCell id="j98MJw622RbExOt3HMlC-71" style="edgeStyle=orthogonalEdgeStyle;rounded=0;orthogonalLoop=1;jettySize=auto;html=1;exitX=0.5;exitY=1;exitDx=0;exitDy=0;entryX=0.5;entryY=0;entryDx=0;entryDy=0;" edge="1" parent="1" source="j98MJw622RbExOt3HMlC-5" target="j98MJw622RbExOt3HMlC-53">
          <mxGeometry relative="1" as="geometry" />
        </mxCell>
        <mxCell id="j98MJw622RbExOt3HMlC-5" value="4. Final&amp;nbsp;Implementation" style="rounded=1;whiteSpace=wrap;html=1;fillColor=#e1d5e7;strokeColor=#9673a6;" vertex="1" parent="1">
          <mxGeometry x="715.5" y="260" width="130" height="60" as="geometry" />
        </mxCell>
        <mxCell id="j98MJw622RbExOt3HMlC-94" style="edgeStyle=orthogonalEdgeStyle;rounded=0;orthogonalLoop=1;jettySize=auto;html=1;exitX=0.5;exitY=1;exitDx=0;exitDy=0;entryX=0.5;entryY=0;entryDx=0;entryDy=0;" edge="1" parent="1" source="j98MJw622RbExOt3HMlC-6" target="j98MJw622RbExOt3HMlC-93">
          <mxGeometry relative="1" as="geometry" />
        </mxCell>
        <mxCell id="j98MJw622RbExOt3HMlC-6" value="5. Results" style="rounded=1;whiteSpace=wrap;html=1;fillColor=#e1d5e7;strokeColor=#9673a6;" vertex="1" parent="1">
          <mxGeometry x="1160" y="260" width="120" height="60" as="geometry" />
        </mxCell>
        <mxCell id="j98MJw622RbExOt3HMlC-18" style="edgeStyle=orthogonalEdgeStyle;rounded=0;orthogonalLoop=1;jettySize=auto;html=1;exitX=0.5;exitY=1;exitDx=0;exitDy=0;entryX=0.5;entryY=0;entryDx=0;entryDy=0;" edge="1" parent="1" source="j98MJw622RbExOt3HMlC-13" target="j98MJw622RbExOt3HMlC-15">
          <mxGeometry relative="1" as="geometry" />
        </mxCell>
        <mxCell id="j98MJw622RbExOt3HMlC-13" value="Create an initial Requirements Document" style="rounded=1;whiteSpace=wrap;html=1;fillColor=#e1d5e7;strokeColor=#9673a6;" vertex="1" parent="1">
          <mxGeometry y="360" width="120" height="60" as="geometry" />
        </mxCell>
        <mxCell id="j98MJw622RbExOt3HMlC-19" style="edgeStyle=orthogonalEdgeStyle;rounded=0;orthogonalLoop=1;jettySize=auto;html=1;exitX=0.5;exitY=1;exitDx=0;exitDy=0;entryX=0.5;entryY=0;entryDx=0;entryDy=0;" edge="1" parent="1" source="j98MJw622RbExOt3HMlC-15" target="j98MJw622RbExOt3HMlC-16">
          <mxGeometry relative="1" as="geometry" />
        </mxCell>
        <mxCell id="j98MJw622RbExOt3HMlC-15" value="Discuss Plan with Team and Client" style="rounded=1;whiteSpace=wrap;html=1;fillColor=#e1d5e7;strokeColor=#9673a6;" vertex="1" parent="1">
          <mxGeometry y="460" width="120" height="60" as="geometry" />
        </mxCell>
        <mxCell id="j98MJw622RbExOt3HMlC-20" style="edgeStyle=orthogonalEdgeStyle;rounded=0;orthogonalLoop=1;jettySize=auto;html=1;exitX=0.5;exitY=1;exitDx=0;exitDy=0;entryX=0.5;entryY=0;entryDx=0;entryDy=0;" edge="1" parent="1" source="j98MJw622RbExOt3HMlC-16" target="j98MJw622RbExOt3HMlC-17">
          <mxGeometry relative="1" as="geometry" />
        </mxCell>
        <mxCell id="j98MJw622RbExOt3HMlC-16" value="Revise Document" style="rounded=1;whiteSpace=wrap;html=1;fillColor=#e1d5e7;strokeColor=#9673a6;" vertex="1" parent="1">
          <mxGeometry y="550" width="120" height="60" as="geometry" />
        </mxCell>
        <mxCell id="j98MJw622RbExOt3HMlC-17" value="Get Final Approval" style="rounded=1;whiteSpace=wrap;html=1;fillColor=#e1d5e7;strokeColor=#9673a6;" vertex="1" parent="1">
          <mxGeometry y="640" width="120" height="60" as="geometry" />
        </mxCell>
        <mxCell id="j98MJw622RbExOt3HMlC-25" style="edgeStyle=orthogonalEdgeStyle;rounded=0;orthogonalLoop=1;jettySize=auto;html=1;exitX=0.5;exitY=1;exitDx=0;exitDy=0;entryX=0.5;entryY=0;entryDx=0;entryDy=0;" edge="1" parent="1" source="j98MJw622RbExOt3HMlC-21" target="j98MJw622RbExOt3HMlC-23">
          <mxGeometry relative="1" as="geometry" />
        </mxCell>
        <mxCell id="j98MJw622RbExOt3HMlC-21" value="Create an wireframe in figma and Get a colour scheme" style="rounded=1;whiteSpace=wrap;html=1;fillColor=#e1d5e7;strokeColor=#9673a6;" vertex="1" parent="1">
          <mxGeometry x="190" y="360" width="120" height="60" as="geometry" />
        </mxCell>
        <mxCell id="j98MJw622RbExOt3HMlC-26" style="edgeStyle=orthogonalEdgeStyle;rounded=0;orthogonalLoop=1;jettySize=auto;html=1;exitX=0.5;exitY=1;exitDx=0;exitDy=0;entryX=0.5;entryY=0;entryDx=0;entryDy=0;" edge="1" parent="1" source="j98MJw622RbExOt3HMlC-23" target="j98MJw622RbExOt3HMlC-24">
          <mxGeometry relative="1" as="geometry" />
        </mxCell>
        <mxCell id="j98MJw622RbExOt3HMlC-23" value="Create an initial landing page for clients approval" style="rounded=1;whiteSpace=wrap;html=1;fillColor=#e1d5e7;strokeColor=#9673a6;" vertex="1" parent="1">
          <mxGeometry x="190" y="460" width="120" height="60" as="geometry" />
        </mxCell>
        <mxCell id="j98MJw622RbExOt3HMlC-28" style="edgeStyle=orthogonalEdgeStyle;rounded=0;orthogonalLoop=1;jettySize=auto;html=1;exitX=0.5;exitY=1;exitDx=0;exitDy=0;entryX=0.5;entryY=0;entryDx=0;entryDy=0;" edge="1" parent="1" source="j98MJw622RbExOt3HMlC-24" target="j98MJw622RbExOt3HMlC-27">
          <mxGeometry relative="1" as="geometry" />
        </mxCell>
        <mxCell id="j98MJw622RbExOt3HMlC-24" value="Revise and create other pages based off client notes" style="rounded=1;whiteSpace=wrap;html=1;fillColor=#e1d5e7;strokeColor=#9673a6;" vertex="1" parent="1">
          <mxGeometry x="190" y="550" width="120" height="60" as="geometry" />
        </mxCell>
        <mxCell id="j98MJw622RbExOt3HMlC-30" style="edgeStyle=orthogonalEdgeStyle;rounded=0;orthogonalLoop=1;jettySize=auto;html=1;exitX=0.5;exitY=1;exitDx=0;exitDy=0;entryX=0.5;entryY=0;entryDx=0;entryDy=0;" edge="1" parent="1" source="j98MJw622RbExOt3HMlC-27" target="j98MJw622RbExOt3HMlC-29">
          <mxGeometry relative="1" as="geometry" />
        </mxCell>
        <mxCell id="j98MJw622RbExOt3HMlC-27" value="Create a final design document" style="rounded=1;whiteSpace=wrap;html=1;fillColor=#e1d5e7;strokeColor=#9673a6;" vertex="1" parent="1">
          <mxGeometry x="190" y="640" width="120" height="60" as="geometry" />
        </mxCell>
        <mxCell id="j98MJw622RbExOt3HMlC-29" value="Get clients final approval before prototype" style="rounded=1;whiteSpace=wrap;html=1;fillColor=#e1d5e7;strokeColor=#9673a6;" vertex="1" parent="1">
          <mxGeometry x="190" y="740" width="120" height="60" as="geometry" />
        </mxCell>
        <mxCell id="j98MJw622RbExOt3HMlC-34" style="edgeStyle=orthogonalEdgeStyle;rounded=0;orthogonalLoop=1;jettySize=auto;html=1;exitX=0.5;exitY=1;exitDx=0;exitDy=0;entryX=0.5;entryY=0;entryDx=0;entryDy=0;" edge="1" parent="1" source="j98MJw622RbExOt3HMlC-31" target="j98MJw622RbExOt3HMlC-32">
          <mxGeometry relative="1" as="geometry" />
        </mxCell>
        <mxCell id="j98MJw622RbExOt3HMlC-31" value="Design Document on how the code will be laid out and coding styles" style="rounded=1;whiteSpace=wrap;html=1;fillColor=#e1d5e7;strokeColor=#9673a6;" vertex="1" parent="1">
          <mxGeometry x="365" y="360" width="120" height="60" as="geometry" />
        </mxCell>
        <mxCell id="j98MJw622RbExOt3HMlC-36" style="edgeStyle=orthogonalEdgeStyle;rounded=0;orthogonalLoop=1;jettySize=auto;html=1;exitX=0.5;exitY=1;exitDx=0;exitDy=0;entryX=0;entryY=0.5;entryDx=0;entryDy=0;" edge="1" parent="1" source="j98MJw622RbExOt3HMlC-32" target="j98MJw622RbExOt3HMlC-35">
          <mxGeometry relative="1" as="geometry" />
        </mxCell>
        <mxCell id="j98MJw622RbExOt3HMlC-39" style="edgeStyle=orthogonalEdgeStyle;rounded=0;orthogonalLoop=1;jettySize=auto;html=1;exitX=0.5;exitY=1;exitDx=0;exitDy=0;entryX=0;entryY=0.5;entryDx=0;entryDy=0;" edge="1" parent="1" source="j98MJw622RbExOt3HMlC-32" target="j98MJw622RbExOt3HMlC-37">
          <mxGeometry relative="1" as="geometry" />
        </mxCell>
        <mxCell id="j98MJw622RbExOt3HMlC-40" style="edgeStyle=orthogonalEdgeStyle;rounded=0;orthogonalLoop=1;jettySize=auto;html=1;exitX=0.5;exitY=1;exitDx=0;exitDy=0;entryX=0;entryY=0.5;entryDx=0;entryDy=0;" edge="1" parent="1" source="j98MJw622RbExOt3HMlC-32" target="j98MJw622RbExOt3HMlC-38">
          <mxGeometry relative="1" as="geometry" />
        </mxCell>
        <mxCell id="j98MJw622RbExOt3HMlC-42" style="edgeStyle=orthogonalEdgeStyle;rounded=0;orthogonalLoop=1;jettySize=auto;html=1;exitX=0.5;exitY=1;exitDx=0;exitDy=0;entryX=0.5;entryY=0;entryDx=0;entryDy=0;" edge="1" parent="1" source="j98MJw622RbExOt3HMlC-32" target="j98MJw622RbExOt3HMlC-41">
          <mxGeometry relative="1" as="geometry">
            <mxPoint x="390" y="710" as="targetPoint" />
          </mxGeometry>
        </mxCell>
        <mxCell id="j98MJw622RbExOt3HMlC-32" value="Create the initial pages" style="rounded=1;whiteSpace=wrap;html=1;fillColor=#e1d5e7;strokeColor=#9673a6;" vertex="1" parent="1">
          <mxGeometry x="365.5" y="460" width="120" height="60" as="geometry" />
        </mxCell>
        <mxCell id="j98MJw622RbExOt3HMlC-35" value="Create Component of each page" style="rounded=1;whiteSpace=wrap;html=1;fillColor=#ffe6cc;strokeColor=#d79b00;" vertex="1" parent="1">
          <mxGeometry x="510" y="530" width="120" height="60" as="geometry" />
        </mxCell>
        <mxCell id="j98MJw622RbExOt3HMlC-37" value="Create the Block out" style="rounded=1;whiteSpace=wrap;html=1;fillColor=#ffe6cc;strokeColor=#d79b00;" vertex="1" parent="1">
          <mxGeometry x="510" y="600" width="120" height="60" as="geometry" />
        </mxCell>
        <mxCell id="j98MJw622RbExOt3HMlC-38" value="Make the CSS style and apply it" style="rounded=1;whiteSpace=wrap;html=1;fillColor=#ffe6cc;strokeColor=#d79b00;" vertex="1" parent="1">
          <mxGeometry x="510" y="670" width="120" height="60" as="geometry" />
        </mxCell>
        <mxCell id="j98MJw622RbExOt3HMlC-51" style="edgeStyle=orthogonalEdgeStyle;rounded=0;orthogonalLoop=1;jettySize=auto;html=1;exitX=0.5;exitY=1;exitDx=0;exitDy=0;entryX=0.5;entryY=0;entryDx=0;entryDy=0;" edge="1" parent="1" source="j98MJw622RbExOt3HMlC-41" target="j98MJw622RbExOt3HMlC-43">
          <mxGeometry relative="1" as="geometry" />
        </mxCell>
        <mxCell id="j98MJw622RbExOt3HMlC-41" value="Get client approval for extra features" style="rounded=1;whiteSpace=wrap;html=1;fillColor=#e1d5e7;strokeColor=#9673a6;" vertex="1" parent="1">
          <mxGeometry x="365.5" y="740" width="120" height="60" as="geometry" />
        </mxCell>
        <mxCell id="j98MJw622RbExOt3HMlC-46" style="edgeStyle=orthogonalEdgeStyle;rounded=0;orthogonalLoop=1;jettySize=auto;html=1;exitX=0.5;exitY=1;exitDx=0;exitDy=0;entryX=0;entryY=0.5;entryDx=0;entryDy=0;" edge="1" parent="1" source="j98MJw622RbExOt3HMlC-43" target="j98MJw622RbExOt3HMlC-45">
          <mxGeometry relative="1" as="geometry" />
        </mxCell>
        <mxCell id="j98MJw622RbExOt3HMlC-48" style="edgeStyle=orthogonalEdgeStyle;rounded=0;orthogonalLoop=1;jettySize=auto;html=1;exitX=0.5;exitY=1;exitDx=0;exitDy=0;entryX=0;entryY=0.5;entryDx=0;entryDy=0;" edge="1" parent="1" source="j98MJw622RbExOt3HMlC-43" target="j98MJw622RbExOt3HMlC-47">
          <mxGeometry relative="1" as="geometry" />
        </mxCell>
        <mxCell id="j98MJw622RbExOt3HMlC-50" style="edgeStyle=orthogonalEdgeStyle;rounded=0;orthogonalLoop=1;jettySize=auto;html=1;exitX=0.5;exitY=1;exitDx=0;exitDy=0;entryX=0.5;entryY=0;entryDx=0;entryDy=0;" edge="1" parent="1" source="j98MJw622RbExOt3HMlC-43" target="j98MJw622RbExOt3HMlC-49">
          <mxGeometry relative="1" as="geometry" />
        </mxCell>
        <mxCell id="j98MJw622RbExOt3HMlC-43" value="Make each page have working features" style="rounded=1;whiteSpace=wrap;html=1;fillColor=#e1d5e7;strokeColor=#9673a6;" vertex="1" parent="1">
          <mxGeometry x="365" y="830" width="120" height="60" as="geometry" />
        </mxCell>
        <mxCell id="j98MJw622RbExOt3HMlC-45" value="Create Scripts for key components. e.g. maps" style="rounded=1;whiteSpace=wrap;html=1;fillColor=#ffe6cc;strokeColor=#d79b00;" vertex="1" parent="1">
          <mxGeometry x="510" y="910" width="120" height="60" as="geometry" />
        </mxCell>
        <mxCell id="j98MJw622RbExOt3HMlC-47" value="Fix App breaking bugs" style="rounded=1;whiteSpace=wrap;html=1;fillColor=#ffe6cc;strokeColor=#d79b00;" vertex="1" parent="1">
          <mxGeometry x="510" y="990" width="120" height="60" as="geometry" />
        </mxCell>
        <mxCell id="j98MJw622RbExOt3HMlC-49" value="Get client sign off for presentation" style="rounded=1;whiteSpace=wrap;html=1;fillColor=#e1d5e7;strokeColor=#9673a6;" vertex="1" parent="1">
          <mxGeometry x="365.5" y="1080" width="120" height="60" as="geometry" />
        </mxCell>
        <mxCell id="j98MJw622RbExOt3HMlC-52" style="edgeStyle=orthogonalEdgeStyle;rounded=0;orthogonalLoop=1;jettySize=auto;html=1;exitX=0.5;exitY=1;exitDx=0;exitDy=0;entryX=0.5;entryY=0;entryDx=0;entryDy=0;" edge="1" parent="1" source="j98MJw622RbExOt3HMlC-53" target="j98MJw622RbExOt3HMlC-58">
          <mxGeometry relative="1" as="geometry" />
        </mxCell>
        <mxCell id="j98MJw622RbExOt3HMlC-73" style="edgeStyle=orthogonalEdgeStyle;rounded=0;orthogonalLoop=1;jettySize=auto;html=1;exitX=0.5;exitY=1;exitDx=0;exitDy=0;entryX=0;entryY=0.5;entryDx=0;entryDy=0;" edge="1" parent="1" source="j98MJw622RbExOt3HMlC-53" target="j98MJw622RbExOt3HMlC-72">
          <mxGeometry relative="1" as="geometry" />
        </mxCell>
        <mxCell id="j98MJw622RbExOt3HMlC-75" style="edgeStyle=orthogonalEdgeStyle;rounded=0;orthogonalLoop=1;jettySize=auto;html=1;exitX=0.5;exitY=1;exitDx=0;exitDy=0;entryX=0;entryY=0.5;entryDx=0;entryDy=0;" edge="1" parent="1" source="j98MJw622RbExOt3HMlC-53" target="j98MJw622RbExOt3HMlC-74">
          <mxGeometry relative="1" as="geometry" />
        </mxCell>
        <mxCell id="j98MJw622RbExOt3HMlC-53" value="Use prototype as a base for development" style="rounded=1;whiteSpace=wrap;html=1;fillColor=#e1d5e7;strokeColor=#9673a6;" vertex="1" parent="1">
          <mxGeometry x="720" y="360" width="120" height="60" as="geometry" />
        </mxCell>
        <mxCell id="j98MJw622RbExOt3HMlC-54" style="edgeStyle=orthogonalEdgeStyle;rounded=0;orthogonalLoop=1;jettySize=auto;html=1;exitX=0.5;exitY=1;exitDx=0;exitDy=0;entryX=0;entryY=0.5;entryDx=0;entryDy=0;" edge="1" parent="1" source="j98MJw622RbExOt3HMlC-58" target="j98MJw622RbExOt3HMlC-59">
          <mxGeometry relative="1" as="geometry" />
        </mxCell>
        <mxCell id="j98MJw622RbExOt3HMlC-55" style="edgeStyle=orthogonalEdgeStyle;rounded=0;orthogonalLoop=1;jettySize=auto;html=1;exitX=0.5;exitY=1;exitDx=0;exitDy=0;entryX=0;entryY=0.5;entryDx=0;entryDy=0;" edge="1" parent="1" source="j98MJw622RbExOt3HMlC-58" target="j98MJw622RbExOt3HMlC-60">
          <mxGeometry relative="1" as="geometry" />
        </mxCell>
        <mxCell id="j98MJw622RbExOt3HMlC-56" style="edgeStyle=orthogonalEdgeStyle;rounded=0;orthogonalLoop=1;jettySize=auto;html=1;exitX=0.5;exitY=1;exitDx=0;exitDy=0;entryX=0;entryY=0.5;entryDx=0;entryDy=0;" edge="1" parent="1" source="j98MJw622RbExOt3HMlC-58" target="j98MJw622RbExOt3HMlC-61">
          <mxGeometry relative="1" as="geometry" />
        </mxCell>
        <mxCell id="j98MJw622RbExOt3HMlC-57" style="edgeStyle=orthogonalEdgeStyle;rounded=0;orthogonalLoop=1;jettySize=auto;html=1;exitX=0.5;exitY=1;exitDx=0;exitDy=0;entryX=0.5;entryY=0;entryDx=0;entryDy=0;" edge="1" parent="1" source="j98MJw622RbExOt3HMlC-58" target="j98MJw622RbExOt3HMlC-76">
          <mxGeometry relative="1" as="geometry">
            <mxPoint x="780.5" y="850" as="targetPoint" />
          </mxGeometry>
        </mxCell>
        <mxCell id="j98MJw622RbExOt3HMlC-77" style="edgeStyle=orthogonalEdgeStyle;rounded=0;orthogonalLoop=1;jettySize=auto;html=1;exitX=0.5;exitY=1;exitDx=0;exitDy=0;entryX=0;entryY=0.5;entryDx=0;entryDy=0;" edge="1" parent="1" target="j98MJw622RbExOt3HMlC-68">
          <mxGeometry relative="1" as="geometry">
            <mxPoint x="780.5" y="710" as="sourcePoint" />
            <mxPoint x="865" y="970" as="targetPoint" />
            <Array as="points">
              <mxPoint x="781" y="711" />
              <mxPoint x="780" y="890" />
            </Array>
          </mxGeometry>
        </mxCell>
        <mxCell id="j98MJw622RbExOt3HMlC-58" value="Create Dashbaord pages" style="rounded=1;whiteSpace=wrap;html=1;fillColor=#e1d5e7;strokeColor=#9673a6;" vertex="1" parent="1">
          <mxGeometry x="720.5" y="570" width="120" height="60" as="geometry" />
        </mxCell>
        <mxCell id="j98MJw622RbExOt3HMlC-59" value="Create Component of each page" style="rounded=1;whiteSpace=wrap;html=1;fillColor=#ffe6cc;strokeColor=#d79b00;" vertex="1" parent="1">
          <mxGeometry x="865" y="640" width="120" height="60" as="geometry" />
        </mxCell>
        <mxCell id="j98MJw622RbExOt3HMlC-60" value="Create the Block out" style="rounded=1;whiteSpace=wrap;html=1;fillColor=#ffe6cc;strokeColor=#d79b00;" vertex="1" parent="1">
          <mxGeometry x="865" y="710" width="120" height="60" as="geometry" />
        </mxCell>
        <mxCell id="j98MJw622RbExOt3HMlC-61" value="Make the CSS style and apply it" style="rounded=1;whiteSpace=wrap;html=1;fillColor=#ffe6cc;strokeColor=#d79b00;" vertex="1" parent="1">
          <mxGeometry x="865" y="780" width="120" height="60" as="geometry" />
        </mxCell>
        <mxCell id="j98MJw622RbExOt3HMlC-68" value="Create Scripts for key components. e.g. maps" style="rounded=1;whiteSpace=wrap;html=1;fillColor=#ffe6cc;strokeColor=#d79b00;" vertex="1" parent="1">
          <mxGeometry x="865" y="860" width="120" height="60" as="geometry" />
        </mxCell>
        <mxCell id="j98MJw622RbExOt3HMlC-69" value="Find bugs and areas of slow down" style="rounded=1;whiteSpace=wrap;html=1;fillColor=#ffe6cc;strokeColor=#d79b00;" vertex="1" parent="1">
          <mxGeometry x="865" y="1640" width="120" height="60" as="geometry" />
        </mxCell>
        <mxCell id="j98MJw622RbExOt3HMlC-83" style="edgeStyle=orthogonalEdgeStyle;rounded=0;orthogonalLoop=1;jettySize=auto;html=1;exitX=0.5;exitY=1;exitDx=0;exitDy=0;entryX=0;entryY=0.5;entryDx=0;entryDy=0;" edge="1" parent="1" source="j98MJw622RbExOt3HMlC-70" target="j98MJw622RbExOt3HMlC-80">
          <mxGeometry relative="1" as="geometry" />
        </mxCell>
        <mxCell id="j98MJw622RbExOt3HMlC-85" style="edgeStyle=orthogonalEdgeStyle;rounded=0;orthogonalLoop=1;jettySize=auto;html=1;exitX=0.5;exitY=1;exitDx=0;exitDy=0;entryX=0;entryY=0.5;entryDx=0;entryDy=0;" edge="1" parent="1" source="j98MJw622RbExOt3HMlC-70" target="j98MJw622RbExOt3HMlC-84">
          <mxGeometry relative="1" as="geometry" />
        </mxCell>
        <mxCell id="j98MJw622RbExOt3HMlC-87" style="edgeStyle=orthogonalEdgeStyle;rounded=0;orthogonalLoop=1;jettySize=auto;html=1;exitX=0.5;exitY=1;exitDx=0;exitDy=0;entryX=0;entryY=0.5;entryDx=0;entryDy=0;" edge="1" parent="1" source="j98MJw622RbExOt3HMlC-70" target="j98MJw622RbExOt3HMlC-86">
          <mxGeometry relative="1" as="geometry" />
        </mxCell>
        <mxCell id="j98MJw622RbExOt3HMlC-89" style="edgeStyle=orthogonalEdgeStyle;rounded=0;orthogonalLoop=1;jettySize=auto;html=1;exitX=0.5;exitY=1;exitDx=0;exitDy=0;entryX=0.5;entryY=0;entryDx=0;entryDy=0;" edge="1" parent="1" source="j98MJw622RbExOt3HMlC-70" target="j98MJw622RbExOt3HMlC-88">
          <mxGeometry relative="1" as="geometry" />
        </mxCell>
        <mxCell id="j98MJw622RbExOt3HMlC-70" value="Create Device Pages" style="rounded=1;whiteSpace=wrap;html=1;fillColor=#e1d5e7;strokeColor=#9673a6;" vertex="1" parent="1">
          <mxGeometry x="721" y="1210" width="120" height="60" as="geometry" />
        </mxCell>
        <mxCell id="j98MJw622RbExOt3HMlC-72" value="analysis prototype for any reusable code" style="rounded=1;whiteSpace=wrap;html=1;fillColor=#ffe6cc;strokeColor=#d79b00;" vertex="1" parent="1">
          <mxGeometry x="865" y="430" width="120" height="60" as="geometry" />
        </mxCell>
        <mxCell id="j98MJw622RbExOt3HMlC-74" value="Create a final document detailing success and&amp;nbsp; failures&amp;nbsp;" style="rounded=1;whiteSpace=wrap;html=1;fillColor=#ffe6cc;strokeColor=#d79b00;" vertex="1" parent="1">
          <mxGeometry x="865" y="510" width="120" height="60" as="geometry" />
        </mxCell>
        <mxCell id="j98MJw622RbExOt3HMlC-79" style="edgeStyle=orthogonalEdgeStyle;rounded=0;orthogonalLoop=1;jettySize=auto;html=1;exitX=0.5;exitY=1;exitDx=0;exitDy=0;entryX=0;entryY=0.5;entryDx=0;entryDy=0;" edge="1" parent="1" source="j98MJw622RbExOt3HMlC-76" target="j98MJw622RbExOt3HMlC-78">
          <mxGeometry relative="1" as="geometry" />
        </mxCell>
        <mxCell id="j98MJw622RbExOt3HMlC-82" style="edgeStyle=orthogonalEdgeStyle;rounded=0;orthogonalLoop=1;jettySize=auto;html=1;exitX=0.5;exitY=1;exitDx=0;exitDy=0;entryX=0.5;entryY=0;entryDx=0;entryDy=0;" edge="1" parent="1" source="j98MJw622RbExOt3HMlC-76" target="j98MJw622RbExOt3HMlC-70">
          <mxGeometry relative="1" as="geometry" />
        </mxCell>
        <mxCell id="j98MJw622RbExOt3HMlC-76" value="Create Authentication pages" style="rounded=1;whiteSpace=wrap;html=1;fillColor=#e1d5e7;strokeColor=#9673a6;" vertex="1" parent="1">
          <mxGeometry x="721" y="950" width="120" height="60" as="geometry" />
        </mxCell>
        <mxCell id="j98MJw622RbExOt3HMlC-78" value="Create Scripts for key components. e.g. maps" style="rounded=1;whiteSpace=wrap;html=1;fillColor=#ffe6cc;strokeColor=#d79b00;" vertex="1" parent="1">
          <mxGeometry x="865" y="1030" width="120" height="60" as="geometry" />
        </mxCell>
        <mxCell id="j98MJw622RbExOt3HMlC-80" value="Integrate with Firebase backend" style="rounded=1;whiteSpace=wrap;html=1;fillColor=#ffe6cc;strokeColor=#d79b00;" vertex="1" parent="1">
          <mxGeometry x="865" y="1300" width="120" height="60" as="geometry" />
        </mxCell>
        <mxCell id="j98MJw622RbExOt3HMlC-84" value="Use Data to create scripts to handle CRUD on databse" style="rounded=1;whiteSpace=wrap;html=1;fillColor=#ffe6cc;strokeColor=#d79b00;" vertex="1" parent="1">
          <mxGeometry x="865" y="1380" width="120" height="60" as="geometry" />
        </mxCell>
        <mxCell id="j98MJw622RbExOt3HMlC-86" value="Test Database Speed and integrity" style="rounded=1;whiteSpace=wrap;html=1;fillColor=#ffe6cc;strokeColor=#d79b00;" vertex="1" parent="1">
          <mxGeometry x="865" y="1460" width="120" height="60" as="geometry" />
        </mxCell>
        <mxCell id="j98MJw622RbExOt3HMlC-91" style="edgeStyle=orthogonalEdgeStyle;rounded=0;orthogonalLoop=1;jettySize=auto;html=1;exitX=0.5;exitY=1;exitDx=0;exitDy=0;entryX=0;entryY=0.5;entryDx=0;entryDy=0;" edge="1" parent="1" source="j98MJw622RbExOt3HMlC-88" target="j98MJw622RbExOt3HMlC-69">
          <mxGeometry relative="1" as="geometry" />
        </mxCell>
        <mxCell id="j98MJw622RbExOt3HMlC-92" style="edgeStyle=orthogonalEdgeStyle;rounded=0;orthogonalLoop=1;jettySize=auto;html=1;exitX=0.5;exitY=1;exitDx=0;exitDy=0;entryX=0;entryY=0.5;entryDx=0;entryDy=0;" edge="1" parent="1" source="j98MJw622RbExOt3HMlC-88" target="j98MJw622RbExOt3HMlC-90">
          <mxGeometry relative="1" as="geometry" />
        </mxCell>
        <mxCell id="j98MJw622RbExOt3HMlC-88" value="App review" style="rounded=1;whiteSpace=wrap;html=1;fillColor=#e1d5e7;strokeColor=#9673a6;" vertex="1" parent="1">
          <mxGeometry x="721" y="1550" width="120" height="60" as="geometry" />
        </mxCell>
        <mxCell id="j98MJw622RbExOt3HMlC-90" value="Fix&amp;nbsp; bugs" style="rounded=1;whiteSpace=wrap;html=1;fillColor=#ffe6cc;strokeColor=#d79b00;" vertex="1" parent="1">
          <mxGeometry x="865" y="1730" width="120" height="60" as="geometry" />
        </mxCell>
        <mxCell id="j98MJw622RbExOt3HMlC-96" style="edgeStyle=orthogonalEdgeStyle;rounded=0;orthogonalLoop=1;jettySize=auto;html=1;exitX=0.5;exitY=1;exitDx=0;exitDy=0;entryX=0.5;entryY=0;entryDx=0;entryDy=0;" edge="1" parent="1" source="j98MJw622RbExOt3HMlC-93" target="j98MJw622RbExOt3HMlC-95">
          <mxGeometry relative="1" as="geometry" />
        </mxCell>
        <mxCell id="j98MJw622RbExOt3HMlC-93" value="Get client sign off on the final version of the APP" style="rounded=1;whiteSpace=wrap;html=1;fillColor=#e1d5e7;strokeColor=#9673a6;" vertex="1" parent="1">
          <mxGeometry x="1160" y="360" width="120" height="60" as="geometry" />
        </mxCell>
        <mxCell id="j98MJw622RbExOt3HMlC-98" style="edgeStyle=orthogonalEdgeStyle;rounded=0;orthogonalLoop=1;jettySize=auto;html=1;exitX=0.5;exitY=1;exitDx=0;exitDy=0;entryX=0.5;entryY=0;entryDx=0;entryDy=0;" edge="1" parent="1" source="j98MJw622RbExOt3HMlC-95" target="j98MJw622RbExOt3HMlC-97">
          <mxGeometry relative="1" as="geometry" />
        </mxCell>
        <mxCell id="j98MJw622RbExOt3HMlC-95" value="Create a final document detailing success and failures" style="rounded=1;whiteSpace=wrap;html=1;fillColor=#e1d5e7;strokeColor=#9673a6;" vertex="1" parent="1">
          <mxGeometry x="1160" y="470" width="120" height="60" as="geometry" />
        </mxCell>
        <mxCell id="j98MJw622RbExOt3HMlC-101" style="edgeStyle=orthogonalEdgeStyle;rounded=0;orthogonalLoop=1;jettySize=auto;html=1;exitX=0.5;exitY=1;exitDx=0;exitDy=0;entryX=0;entryY=0.5;entryDx=0;entryDy=0;" edge="1" parent="1" source="j98MJw622RbExOt3HMlC-97" target="j98MJw622RbExOt3HMlC-99">
          <mxGeometry relative="1" as="geometry" />
        </mxCell>
        <mxCell id="j98MJw622RbExOt3HMlC-102" style="edgeStyle=orthogonalEdgeStyle;rounded=0;orthogonalLoop=1;jettySize=auto;html=1;exitX=0.5;exitY=1;exitDx=0;exitDy=0;entryX=0;entryY=0.5;entryDx=0;entryDy=0;" edge="1" parent="1" source="j98MJw622RbExOt3HMlC-97" target="j98MJw622RbExOt3HMlC-100">
          <mxGeometry relative="1" as="geometry" />
        </mxCell>
        <mxCell id="j98MJw622RbExOt3HMlC-104" style="edgeStyle=orthogonalEdgeStyle;rounded=0;orthogonalLoop=1;jettySize=auto;html=1;exitX=0.5;exitY=1;exitDx=0;exitDy=0;entryX=0.5;entryY=0;entryDx=0;entryDy=0;" edge="1" parent="1" source="j98MJw622RbExOt3HMlC-97" target="j98MJw622RbExOt3HMlC-103">
          <mxGeometry relative="1" as="geometry" />
        </mxCell>
        <mxCell id="j98MJw622RbExOt3HMlC-97" value="publish the App to testers" style="rounded=1;whiteSpace=wrap;html=1;fillColor=#e1d5e7;strokeColor=#9673a6;" vertex="1" parent="1">
          <mxGeometry x="1160" y="580" width="120" height="60" as="geometry" />
        </mxCell>
        <mxCell id="j98MJw622RbExOt3HMlC-99" value="Find people/Companies to test the app on" style="rounded=1;whiteSpace=wrap;html=1;fillColor=#ffe6cc;strokeColor=#d79b00;" vertex="1" parent="1">
          <mxGeometry x="1290" y="650" width="120" height="60" as="geometry" />
        </mxCell>
        <mxCell id="j98MJw622RbExOt3HMlC-100" value="Use feedback to fix bugs and key features" style="rounded=1;whiteSpace=wrap;html=1;fillColor=#ffe6cc;strokeColor=#d79b00;" vertex="1" parent="1">
          <mxGeometry x="1290" y="730" width="120" height="60" as="geometry" />
        </mxCell>
        <mxCell id="j98MJw622RbExOt3HMlC-103" value="Publish the App officially" style="rounded=1;whiteSpace=wrap;html=1;fillColor=#e1d5e7;strokeColor=#9673a6;" vertex="1" parent="1">
          <mxGeometry x="1160" y="810" width="120" height="60" as="geometry" />
        </mxCell>
      </root>
    </mxGraphModel>
  </diagram>
</mxfile>
